# xmcd
#
# Track frame offsets:
#	183
#	21545
#	40893
#	67403
#	83603
#	108388
#	126250
#	148750
#	165360
#	187360
#	204143
#	227315
#
# Disc length: 3248 seconds
#
# Revision: 0
# Processed by: cddbd v1.5.2PL0 Copyright (c) Steve Scherf et al.
# Submitted via: EasyCDDAExtractor 16.1.0.1
#
DISCID=a70cae0c
DTITLE=Pet Shop Boys - Abbey Road Demos
DYEAR=1900
DGENRE=
TTITLE0=It´s A Sin (Different Vocals)
TTITLE1=Rent (First Take Different Vocals)
TTITLE2=You know where you went wrong (Demo 1st Mix)
TTITLE3=One More Chance (Demo)
TTITLE4=I want to wake up (Different Version)
TTITLE5=What have i done to deserve this (Demo)
TTITLE6=It couldn´t happen here (Demo Different Lyrics)
TTITLE7=One More Chance 2 (Different Mix)
TTITLE8=Kings Cross (Demo without overdubs)
TTITLE9=Jealousy (Demo Mix Brand New Version)
TTITLE10=Living Daylights (Part 1)
TTITLE11=Living Daylights (Part 2)
EXTD=
EXTT0=
EXTT1=
EXTT2=
EXTT3=
EXTT4=
EXTT5=
EXTT6=
EXTT7=
EXTT8=
EXTT9=
EXTT10=
EXTT11=
PLAYORDER=
